<?xml version="1.0" encoding="UTF-8"?>
<svg width="16px" height="20px" viewBox="0 0 16 20" version="1.1" xmlns="http://www.w3.org/2000/svg" xmlns:xlink="http://www.w3.org/1999/xlink">
    <!-- Generator: Sketch 52.6 (67491) - http://www.bohemiancoding.com/sketch -->
    <title>Group 9</title>
    <desc>Created with Sketch.</desc>
    <g id="Icons" stroke="none" stroke-width="1" fill="none" fill-rule="evenodd">
        <g id="Artboard" transform="translate(-14.000000, -132.000000)">
            <g id="Group-9" transform="translate(14.000000, 132.000000)">
                <polygon id="Rectangle" fill="#FFFFFF" points="2 0.95043387 14 0.95043387 14 19.0523549 2 19.0523549"></polygon>
                <path d="M2,18.6263741 C4,18.8596801 6,18.9763331 8,18.9763331 C10,18.9763331 12,18.8596801 14,18.6263741 L14,1.35055742 C12,1.11725143 10,1.00059843 8,1.00059843 C6,1.00059843 4,1.11725143 2,1.35055742 L2,18.6263741 Z M1,19 L1,1 L1,0.476931494 C3.33333333,0.158977165 5.66666667,5.60406421e-14 8,5.60662627e-14 C10.3333333,5.60662627e-14 12.6666667,0.158977165 15,0.476931494 L15,1 L15,19 L15,19.5 C12.6666667,19.8179543 10.3333333,19.9769315 8,19.9769315 C5.66666667,19.9769315 3.33333333,19.8179543 1,19.5 L1,19 Z" id="Combined-Shape" fill="#009343"></path>
                <rect id="Rectangle" stroke="#009343" fill="#FFFFFF" x="0.5" y="5.5" width="15" height="2" rx="1"></rect>
                <rect id="Rectangle" stroke="#009343" fill="#FFFFFF" x="0.5" y="12.5" width="15" height="2" rx="1"></rect>
            </g>
        </g>
    </g>
</svg>