<svg width="16" height="16" viewBox="0 0 113 113" xmlns="http://www.w3.org/2000/svg" overflow="hidden"><defs><clipPath id="a"><path d="M0 0h113v113H0z"/></clipPath><clipPath id="b"><path d="M4 4h105v105H4z"/></clipPath><clipPath id="c"><path d="M4 4h105v105H4z"/></clipPath><clipPath id="d"><path d="M4 4h105v105H4z"/></clipPath></defs><g clip-path="url(#a)"><g clip-path="url(#b)"><g clip-path="url(#c)"><g clip-path="url(#d)"><path d="M51.602 49.338h54.848a49.02 49.02 0 0 0-2.33-9.379H53.606c-4.015 0-5.62-1.495-5.017-4.888l5.398-28.255a51.9 51.9 0 0 0-4.122.402l-8.001 30.244c-2.209 8.478.604 11.87 9.732 11.87z" fill="#FFF"/><path d="M48.59 64.11c-14.749 0-21.366-8.083-16.856-20.855L44.125 8.362c-1.52.396-3.018.86-4.481 1.393l-15.54 35.392C16.78 61.911 26.01 73.482 47.377 73.482H104a49.489 49.489 0 0 0 2.392-9.378H48.578z" fill="#FFF"/><path d="M53.606 39.96h50.514C97.242 20.6 78.684 6.73 56.87 6.73c-.969 0-1.925.029-2.876.086L48.595 35.07c-.604 3.393 1.002 4.888 5.016 4.888z" fill="#009343"/><path d="M24.115 45.153l15.54-35.392C20.63 16.676 7.277 34.658 6.782 55.245c-.262 56.755 77.095 70.78 97.237 18.25H47.394c-21.371 0-30.596-11.578-23.273-28.337z" fill="#009343"/><path d="M48.59 64.11h57.814c.376-2.459.569-4.974.569-7.534 0-2.559-.182-4.87-.53-7.232H51.597c-9.128 0-11.935-3.392-9.732-11.871l8-30.244a50.47 50.47 0 0 0-5.739 1.138l-12.39 34.894C27.22 56.033 33.842 64.115 48.59 64.115zm74.925-2.913c0-20.734 15.433-36.382 35.978-36.382 13.028 0 23.352 7.578 27.657 19.437l-14.43 4.09c-2.204-6.378-7.619-9.968-14.628-9.968-11.925 0-20.546 9.073-20.546 21.527 0 9.77 6.316 16.25 16.537 16.25 6.913 0 13.132-3.688 16.234-9.969l12.728 6.378c-6.014 10.567-17.437 17.341-30.369 17.341-17.435 0-29.161-12.358-29.161-28.708zm62.542 5.586c0-16.148 12.328-29.406 27.26-29.406 7.014 0 12.224 2.39 15.635 7.277l2.608-5.878h10.922l-5.312 49.84h-12.927l.7-5.879c-4.51 4.881-10.124 7.278-17.14 7.278-12.425 0-21.746-10.07-21.746-23.228zm40.988-4.883c0-7.278-5.113-12.26-12.631-12.26-8.717 0-15.334 6.874-15.334 15.845 0 7.278 4.909 12.262 12.424 12.262 8.822 0 15.535-6.876 15.535-15.847zm69.351 9.968l2.204-20.734h-8.718l1.304-12.358h8.718l1.105-10.07 13.33-3.886-1.503 13.956h11.326l-1.304 12.358h-11.326l-2.203 20.734c-.4 4.09 1.803 5.284 6.815 5.284 1.104 0 2.608-.1 4.009-.198l-1.305 11.662c-2.505.3-4.708.396-6.712.396-13.03 0-16.936-5.68-15.734-17.144zm29.365 16.742l5.314-49.84h10.922l1.4 5.88c3.906-4.588 10.125-6.877 15.932-6.877l-1.4 13.355h-2.107c-7.117 0-13.632 4.09-14.532 12.76l-2.607 24.722h-12.927zm31.667-22.026c0-16.249 13.028-29.207 29.365-29.207 13.832 0 23.854 10.07 23.854 23.425 0 16.25-13.027 29.207-29.365 29.207-13.832 0-23.854-10.07-23.854-23.425zm40.186-4.684c0-7.079-4.812-11.96-12.13-11.96-8.519 0-15.033 6.676-15.033 15.551 0 7.08 4.812 11.961 12.129 11.961 8.52 0 15.034-6.677 15.034-15.552zm16.04 26.71l6.314-59.904L433.3 24.82l-6.714 63.796h-12.927zM242.072 76.257l13.13-4.383c1.704 4.287 4.813 6.48 9.42 6.48 4.606 0 7.015-1.694 7.015-4.084 0-7.176-23.752-3.885-23.752-19.336 0-10.167 8.822-17.54 20.848-17.54 8.519 0 14.931 4.984 17.538 13.853l-12.726 3.591c-1.003-3.988-3.207-5.98-6.617-5.98-3.411 0-5.712 1.89-5.712 4.286 0 7.08 24.053 2.89 24.053 19.54 0 10.268-8.917 17.341-22.248 17.341-10.523 0-17.641-4.683-20.944-13.756z" fill="#F00023"/></g></g></g></g></svg>
